<?xml version="1.0" encoding="UTF-8" standalone="no"?>
<svg
   xmlns:dc="http://purl.org/dc/elements/1.1/"
   xmlns:cc="http://creativecommons.org/ns#"
   xmlns:rdf="http://www.w3.org/1999/02/22-rdf-syntax-ns#"
   xmlns:svg="http://www.w3.org/2000/svg"
   xmlns="http://www.w3.org/2000/svg"
   xmlns:sodipodi="http://sodipodi.sourceforge.net/DTD/sodipodi-0.dtd"
   xmlns:inkscape="http://www.inkscape.org/namespaces/inkscape"
   inkscape:version="1.0beta2 (d1f66e3, 2020-01-24)"
   sodipodi:docname="BlenderMarket.svg"
   viewBox="0 0 23.999998 26.460819"
   height="26.460819"
   width="23.999998"
   version="1.1"
   id="svg">
  <metadata
     id="metadata13">
    <rdf:RDF>
      <cc:Work
         rdf:about="">
        <dc:format>image/svg+xml</dc:format>
        <dc:type
           rdf:resource="http://purl.org/dc/dcmitype/StillImage" />
      </cc:Work>
    </rdf:RDF>
  </metadata>
  <defs
     id="defs11" />
  <sodipodi:namedview
     inkscape:current-layer="svg"
     inkscape:window-maximized="0"
     inkscape:window-y="0"
     inkscape:window-x="0"
     inkscape:cy="8.5034899"
     inkscape:cx="29.498944"
     inkscape:zoom="6.675088"
     showgrid="false"
     id="namedview9"
     inkscape:window-height="1067"
     inkscape:window-width="1732"
     inkscape:pageshadow="2"
     inkscape:pageopacity="0"
     guidetolerance="10"
     gridtolerance="10"
     objecttolerance="10"
     borderopacity="1"
     bordercolor="#666666"
     pagecolor="#ffffff" />
  <g
     transform="matrix(0.06615205,0,0,0.06615205,-1.1378006,0)"
     id="svgg">
    <path
       inkscape:connector-curvature="0"
       fill-rule="evenodd"
       fill="#ec6628"
       stroke="none"
       d="m 154.2,152.567 c -10.233,1.515 -23.513,9.965 -26.405,16.803 -0.223,0.527 -0.689,1.289 -1.035,1.694 -1.228,1.436 -3.557,6.174 -3.808,7.747 -0.394,2.465 3.709,5.832 4.853,3.981 0.138,-0.224 1.094,-0.86 2.123,-1.414 1.03,-0.554 2.437,-1.366 3.128,-1.804 6.701,-4.248 20.446,-3.955 29.998,0.639 1.586,0.763 2.992,1.387 3.124,1.387 0.269,0 3.178,1.92 6.821,4.501 8.792,6.23 18.977,20.668 21.582,30.596 0.332,1.267 0.982,3.288 1.444,4.492 2.006,5.229 1.981,22.766 -0.04,27.42 -0.475,1.095 -1.095,2.746 -1.379,3.669 -1.334,4.348 -8.124,12.424 -12.206,14.517 -0.55,0.282 -2.134,1.239 -3.519,2.127 l -2.519,1.614 0.119,1.816 c 0.107,1.634 0.293,1.937 1.854,3.032 l 1.735,1.216 h 6.265 c 4.123,0 6.744,-0.176 7.665,-0.516 0.77,-0.283 2.75,-0.788 4.4,-1.121 1.65,-0.333 3.485,-0.954 4.077,-1.379 0.592,-0.425 2.032,-1.227 3.2,-1.78 15.994,-7.585 24.808,-30.691 20.982,-55.004 -0.897,-5.696 -4.656,-17.359 -6.62,-20.537 -0.459,-0.743 -1.102,-2.108 -1.429,-3.034 -0.326,-0.925 -0.971,-2.165 -1.434,-2.756 -0.462,-0.59 -1.951,-2.764 -3.308,-4.83 -2.605,-3.966 -3.446,-5.169 -5.068,-7.254 -1.677,-2.155 -11.391,-11.841 -12.883,-12.846 -0.77,-0.519 -2.192,-1.473 -3.159,-2.121 -0.967,-0.648 -2.118,-1.485 -2.558,-1.861 -1.953,-1.666 -9.511,-5.208 -15,-7.031 -6.444,-2.139 -14.636,-2.905 -21,-1.963 m 69.501,8.56 c -2.876,1.534 -3.194,4.1 -0.794,6.391 1.908,1.821 3.656,3.75 4.423,4.882 0.372,0.55 1.299,1.81 2.058,2.8 2.005,2.613 7.179,13.226 8.425,17.281 1.776,5.781 3.913,7.337 6.886,5.013 0.627,-0.49 2.613,-4.387 3.294,-6.461 0.282,-0.863 0.848,-2.135 1.257,-2.827 0.408,-0.693 1.106,-2.315 1.55,-3.605 0.443,-1.29 1.058,-2.628 1.364,-2.973 2.729,-3.072 2.367,-11.236 -0.634,-14.306 -3.35,-3.426 -4.942,-4.031 -12.988,-4.935 -3.928,-0.442 -8.557,-1.069 -10.286,-1.395 -1.729,-0.326 -3.169,-0.584 -3.2,-0.575 -0.031,0.009 -0.641,0.328 -1.355,0.71 m 28.685,9.247 c 0.933,1.743 0.502,7.349 -0.744,9.684 -0.637,1.194 -1.397,2.974 -1.688,3.956 -0.291,0.982 -0.927,2.377 -1.413,3.099 -0.486,0.723 -1.004,1.863 -1.151,2.534 -0.148,0.672 -0.759,2.153 -1.358,3.291 -0.599,1.139 -1.19,2.46 -1.315,2.935 -0.56,2.141 -4.717,1.791 -4.717,-0.396 0,-0.44 -0.43,-1.717 -0.955,-2.838 -0.526,-1.122 -1.081,-2.802 -1.235,-3.734 -0.153,-0.932 -0.691,-2.302 -1.195,-3.045 -2.795,-4.118 -2.947,-6.74 -0.457,-7.91 0.903,-0.424 2.632,-1.394 3.842,-2.155 1.21,-0.761 2.92,-1.735 3.8,-2.166 0.88,-0.43 2.578,-1.513 3.772,-2.406 2.415,-1.804 4.14,-2.109 4.814,-0.849 m -36.061,21.237 c 0.729,0.878 1.609,2.449 1.954,3.492 0.346,1.044 0.958,2.262 1.36,2.707 0.402,0.446 1.024,1.976 1.382,3.4 0.359,1.425 0.899,2.978 1.2,3.453 3.145,4.945 5.227,26.832 3.4,35.737 -0.774,3.775 -2.706,9.92 -3.546,11.278 -0.481,0.779 -0.875,1.686 -0.875,2.015 0,0.33 -0.72,1.658 -1.599,2.953 -0.88,1.295 -1.6,2.532 -1.6,2.75 -0.001,0.45 -0.537,1.036 -5.396,5.904 -1.922,1.925 -3.699,3.505 -3.95,3.511 -0.25,0.006 -1.154,0.54 -2.008,1.187 -0.854,0.646 -2.204,1.386 -3,1.644 -0.796,0.258 -1.92,0.801 -2.498,1.206 -4.274,2.996 -24.907,3.026 -23.759,0.034 0.117,-0.306 0.32,-0.982 0.451,-1.502 0.152,-0.607 0.868,-1.252 1.996,-1.798 0.967,-0.468 1.867,-1.027 2,-1.241 0.132,-0.215 0.676,-0.556 1.209,-0.758 2.25,-0.856 8.86,-7.361 9.634,-9.482 0.141,-0.386 0.662,-1.194 1.158,-1.796 0.497,-0.603 1.184,-2.064 1.528,-3.248 0.344,-1.184 0.88,-2.364 1.192,-2.622 2.788,-2.314 2.651,-26.678 -0.18,-32.035 -0.407,-0.77 -1.024,-2.562 -1.372,-3.983 -0.347,-1.42 -0.875,-2.86 -1.172,-3.2 -0.851,-0.972 -2.559,-4.896 -2.703,-6.211 -0.12,-1.099 0.062,-1.295 2.269,-2.432 1.32,-0.68 4.29,-2.323 6.6,-3.65 2.31,-1.327 5.1,-2.915 6.2,-3.53 2.906,-1.622 7.297,-4.504 7.593,-4.982 0.467,-0.756 1.195,-0.411 2.532,1.199 m -86.216,8.564 c -12.921,3.131 -19.929,18.245 -15.753,33.973 0.85,3.201 1.054,3.705 4.066,10.052 2.347,4.945 9.674,14.2 11.242,14.2 0.17,0 0.924,0.541 1.676,1.201 0.753,0.661 2.043,1.484 2.868,1.828 0.825,0.345 1.978,0.981 2.563,1.413 4.793,3.543 18.954,3.367 22.851,-0.284 0.562,-0.527 1.198,-0.958 1.414,-0.958 0.461,0 4.564,-4.08 4.564,-4.539 0,-0.173 0.436,-0.887 0.968,-1.588 5.462,-7.181 5.331,-21.044 -0.313,-33.11 -0.782,-1.67 -1.71,-3.277 -2.064,-3.571 -0.354,-0.293 -0.929,-1.087 -1.278,-1.763 -1.353,-2.622 -8.53,-10.2 -10.713,-11.312 -0.66,-0.336 -1.747,-1.02 -2.415,-1.52 -4.686,-3.503 -13.979,-5.403 -19.676,-4.022 m 34.546,21.425 c 0.264,0.55 0.953,1.978 1.531,3.173 6.927,14.316 2.575,32.312 -9.186,37.986 -3.618,1.745 -14.712,1.67 -18.2,-0.124 -0.55,-0.283 -1.63,-0.842 -2.4,-1.242 -0.77,-0.4 -1.602,-0.833 -1.849,-0.96 -3.86,-2.001 -11.391,-9.335 -13.904,-13.541 -0.673,-1.125 0.503,-3.15 2.107,-3.631 0.842,-0.252 2.142,-0.872 2.888,-1.378 0.747,-0.505 2.393,-1.496 3.658,-2.201 2.473,-1.378 6.125,-3.478 7.1,-4.083 0.33,-0.205 2.4,-1.397 4.6,-2.649 2.2,-1.253 5.08,-2.909 6.4,-3.68 1.32,-0.772 3.39,-1.965 4.6,-2.652 3.545,-2.014 4.713,-2.719 7.52,-4.536 2.996,-1.94 4.373,-2.069 5.135,-0.482"
       id="path0" />
    <path
       inkscape:connector-curvature="0"
       fill-rule="evenodd"
       fill="#242b33"
       stroke="none"
       d="m 185.6,0.6 c 0,0.481 -0.614,0.601 -3.1,0.605 -4.105,0.008 -4.8,0.228 -5.105,1.617 -0.239,1.087 -0.367,1.147 -2.723,1.26 -2.468,0.118 -2.472,0.12 -2.597,1.418 l -0.126,1.3 h -2.574 c -2.566,0 -2.575,0.004 -2.575,1.144 0,1.099 -0.099,1.158 -2.5,1.5 -2.327,0.331 -2.509,0.432 -2.627,1.456 -0.11,0.962 -0.299,1.1 -1.5,1.1 -1.303,0 -1.373,0.072 -1.373,1.4 v 1.4 h -2.61 c -2.563,0 -2.614,0.021 -2.843,1.166 -0.218,1.089 -0.39,1.184 -2.608,1.441 -2.177,0.253 -2.394,0.367 -2.594,1.367 -0.191,0.955 -0.478,1.138 -2.281,1.459 -1.678,0.298 -2.161,0.572 -2.586,1.467 -0.42,0.886 -0.79,1.1 -1.9,1.1 -1.264,0 -1.378,0.099 -1.378,1.2 0,1.171 -0.048,1.2 -1.967,1.2 -2.692,0 -3.233,0.275 -3.233,1.643 0,1.119 -0.064,1.157 -1.967,1.157 -2.692,0 -3.233,0.275 -3.233,1.643 0,1.056 -0.123,1.157 -1.4,1.157 -1.289,0 -1.4,0.095 -1.4,1.2 0,1.195 -0.009,1.2 -2.32,1.2 -2.498,0 -3.28,0.444 -3.28,1.861 0,0.826 -0.209,0.911 -2.5,1.02 -2.5,0.119 -2.5,0.119 -2.625,1.419 -0.124,1.285 -0.15,1.3 -2.22,1.3 -2.194,0 -3.055,0.474 -3.055,1.68 0,0.443 -0.295,0.72 -0.767,0.72 -1.456,0 -2.033,0.466 -2.033,1.643 V 44 h -2.6 -2.6 v 1.4 1.4 h -2.55 c -2.485,0 -2.556,0.029 -2.779,1.143 -0.202,1.012 -0.443,1.172 -2.109,1.4 -2.139,0.293 -2.962,0.823 -2.962,1.906 0,0.587 -0.296,0.751 -1.357,0.751 -1.382,0 -1.843,0.504 -1.843,2.014 0,0.638 -0.367,0.765 -2.5,0.867 -2.396,0.114 -2.505,0.165 -2.627,1.219 -0.102,0.894 -0.327,1.101 -1.2,1.104 -2.94,0.012 -4.073,0.455 -4.073,1.592 0,1.029 -0.127,1.105 -2.19,1.318 -2.674,0.276 -3.01,0.467 -3.01,1.71 0,0.849 -0.182,0.976 -1.4,0.976 -1.289,0 -1.4,0.095 -1.4,1.2 0,1.186 -0.025,1.2 -2.171,1.2 -2.33,0 -3.429,0.65 -3.429,2.029 C 65.2,67.893 64.907,68 63.08,68 60.766,68 60,68.467 60,69.88 c 0,0.789 -0.204,0.92 -1.431,0.92 -1.056,0 -1.745,0.314 -2.631,1.2 -0.66,0.66 -1.531,1.2 -1.936,1.2 -1.417,0 -2.002,0.475 -2.002,1.624 0,1.116 -0.047,1.14 -2.5,1.257 C 47,76.2 47,76.2 46.875,77.5 c -0.123,1.271 -0.169,1.3 -2.068,1.3 -2.549,0 -3.207,0.291 -3.207,1.417 0,0.759 -0.241,0.956 -1.3,1.058 -1.143,0.11 -1.315,0.282 -1.425,1.425 C 38.76,83.89 38.633,84 37.375,84 36.07,84 36,84.072 36,85.4 c 0,1.393 -0.01,1.4 -1.8,1.4 -1.987,0 -3.4,0.997 -3.4,2.4 0,0.44 -0.258,0.8 -0.573,0.8 C 29.363,90 28,92.163 28,93.536 c 0,1.076 -0.147,1.227 -1.3,1.339 -1.068,0.103 -1.322,0.313 -1.422,1.179 -0.094,0.806 -0.4,1.11 -1.3,1.29 -1.158,0.232 -1.178,0.28 -1.178,2.821 v 2.584 l -1.3,0.126 -1.3,0.125 -0.118,2.9 c -0.064,1.595 -0.283,2.9 -0.485,2.9 -0.203,0 -0.825,0.672 -1.383,1.493 l -1.014,1.493 v 87.851 c 0,94.594 -0.057,91.445 1.66,92.044 1.093,0.381 1.14,0.502 1.14,2.958 v 2.561 h 1.4 1.4 v 2.61 c 0,2.58 0.014,2.613 1.2,2.85 0.935,0.187 1.2,0.453 1.2,1.203 0,0.564 0.569,1.533 1.374,2.337 0.889,0.89 1.418,1.836 1.5,2.685 0.106,1.105 0.314,1.344 1.323,1.517 0.952,0.163 1.238,0.449 1.401,1.401 0.173,1.006 0.413,1.217 1.504,1.322 1.128,0.109 1.298,0.274 1.298,1.254 0,1.276 0.711,1.607 3.475,1.616 1.595,0.005 1.68,0.067 1.8,1.303 0.105,1.093 0.315,1.331 1.325,1.502 0.949,0.161 1.226,0.433 1.327,1.302 0.123,1.069 0.193,1.098 2.674,1.098 h 2.548 l 0.126,1.3 c 0.125,1.3 0.125,1.3 2.625,1.419 2.453,0.117 2.5,0.141 2.5,1.257 0,1.15 0.585,1.624 2.006,1.624 0.511,0 0.78,0.342 0.867,1.1 0.122,1.053 0.233,1.105 2.603,1.218 2.465,0.118 2.477,0.125 2.6,1.4 0.124,1.278 0.132,1.282 2.624,1.401 2.291,0.109 2.5,0.194 2.5,1.02 0,1.417 0.782,1.861 3.28,1.861 2.3,0 2.32,0.01 2.32,1.175 0,1.032 0.157,1.189 1.298,1.3 1.092,0.105 1.331,0.316 1.503,1.325 0.198,1.167 0.272,1.203 2.701,1.319 2.451,0.117 2.498,0.141 2.498,1.257 0,1.347 0.551,1.624 3.233,1.624 1.919,0 1.967,0.029 1.967,1.2 v 1.2 h 2.6 c 2.296,0 2.6,0.09 2.6,0.767 0,1.445 0.467,2.033 1.616,2.033 0.936,0 1.153,0.189 1.257,1.1 0.118,1.02 0.306,1.127 2.59,1.465 2.269,0.337 2.481,0.455 2.69,1.5 0.221,1.107 0.29,1.135 2.837,1.135 h 2.61 v 1.4 c 0,1.36 0.045,1.4 1.553,1.4 1.179,0 1.601,0.18 1.748,0.745 0.225,0.859 2.397,2.055 3.734,2.055 0.697,0 0.942,0.259 1.038,1.1 0.122,1.053 0.233,1.105 2.603,1.218 2.465,0.118 2.477,0.125 2.6,1.4 0.124,1.278 0.132,1.282 2.624,1.401 2.317,0.11 2.5,0.187 2.5,1.051 0,1.104 0.631,1.702 1.996,1.892 0.614,0.085 1.053,0.444 1.146,0.938 0.21,1.114 0.776,1.387 2.9,1.394 1.734,0.006 1.864,0.083 2.214,1.306 0.361,1.266 0.434,1.303 2.833,1.418 2.451,0.118 2.464,0.125 2.587,1.4 0.111,1.144 0.283,1.304 1.593,1.482 0.816,0.111 2.014,0.689 2.696,1.3 0.764,0.684 1.683,1.1 2.432,1.1 1.06,0 1.203,0.137 1.203,1.157 0,1.368 0.541,1.643 3.233,1.643 1.837,0 1.967,0.067 1.967,1.01 0,1.185 1.217,1.79 3.599,1.79 1.391,0 1.561,0.111 1.674,1.1 0.105,0.911 0.346,1.121 1.4,1.223 1.031,0.1 1.321,0.34 1.523,1.26 0.273,1.241 1.062,1.603 3.514,1.612 1.344,0.004 1.535,0.132 1.742,1.163 0.247,1.237 1.233,1.642 3.998,1.642 1.233,0 1.35,0.104 1.35,1.2 v 1.2 h 2.575 2.574 l 0.126,1.3 c 0.11,1.148 0.28,1.315 1.445,1.427 0.956,0.092 1.42,0.388 1.681,1.076 0.432,1.135 2.443,1.792 5.499,1.795 1.599,10e-4 2.1,0.145 2.1,0.602 0,0.522 1.889,0.6 14.6,0.6 12.711,0 14.6,-0.078 14.6,-0.6 0,-0.469 0.588,-0.61 2.7,-0.647 4.165,-0.073 5.078,-0.362 5.227,-1.655 0.117,-1.016 0.261,-1.098 1.926,-1.098 2.307,0 3.347,-0.564 3.347,-1.814 0,-0.86 0.179,-0.986 1.4,-0.986 1.284,0 1.4,-0.098 1.4,-1.181 0,-1.169 0.025,-1.182 2.5,-1.3 2.5,-0.119 2.5,-0.119 2.625,-1.419 l 0.126,-1.3 h 2.556 2.557 l 0.262,-1.4 c 0.238,-1.266 0.39,-1.4 1.592,-1.4 1.994,0 3.382,-0.653 3.382,-1.59 0,-0.62 0.262,-0.81 1.12,-0.81 1.354,0 2.08,-0.65 2.08,-1.861 0,-0.826 0.209,-0.911 2.5,-1.02 2.492,-0.119 2.5,-0.123 2.624,-1.401 0.123,-1.275 0.135,-1.282 2.6,-1.4 2.34,-0.112 2.483,-0.176 2.598,-1.169 0.109,-0.942 0.338,-1.08 2.19,-1.326 2.322,-0.308 3.088,-0.773 3.088,-1.872 0,-0.592 0.297,-0.751 1.4,-0.751 1.333,0 1.4,-0.067 1.4,-1.4 v -1.4 h 2.61 c 2.547,0 2.616,-0.028 2.837,-1.135 0.209,-1.045 0.421,-1.163 2.69,-1.5 2.284,-0.338 2.472,-0.445 2.59,-1.465 0.099,-0.868 0.334,-1.1 1.112,-1.1 1.719,0 3.761,-1.075 3.761,-1.98 0,-0.69 0.253,-0.82 1.6,-0.82 1.511,0 1.6,-0.067 1.6,-1.2 0,-1.096 0.117,-1.2 1.35,-1.2 2.904,0 3.85,-0.405 3.85,-1.65 0,-1.111 0.067,-1.15 1.967,-1.15 2.692,0 3.233,-0.275 3.233,-1.643 0,-1.056 0.123,-1.157 1.4,-1.157 1.289,0 1.4,-0.095 1.4,-1.2 0,-1.186 0.025,-1.2 2.171,-1.2 2.33,0 3.429,-0.65 3.429,-2.029 0,-0.664 0.293,-0.771 2.12,-0.771 2.314,0 3.08,-0.467 3.08,-1.88 0,-0.836 0.181,-0.92 1.971,-0.92 2.013,0 3.229,-0.689 3.229,-1.829 0,-0.314 0.345,-0.571 0.767,-0.571 1.448,0 2.033,-0.467 2.033,-1.624 0,-1.116 0.047,-1.14 2.5,-1.257 2.492,-0.119 2.5,-0.123 2.624,-1.401 0.123,-1.275 0.135,-1.282 2.6,-1.4 2.37,-0.113 2.481,-0.165 2.603,-1.218 0.11,-0.962 0.299,-1.1 1.5,-1.1 1.303,0 1.373,-0.072 1.373,-1.4 V 332 h 2.557 c 2.659,0 3.043,-0.254 3.043,-2.014 0,-0.638 0.367,-0.765 2.5,-0.867 2.363,-0.112 2.507,-0.176 2.621,-1.166 0.112,-0.959 0.332,-1.077 2.6,-1.4 2.29,-0.326 2.488,-0.435 2.603,-1.429 0.103,-0.886 0.351,-1.099 1.4,-1.2 1.116,-0.109 1.292,-0.287 1.401,-1.424 l 0.126,-1.3 h 2.574 2.575 V 320 c 0,-1.041 0.145,-1.201 1.1,-1.204 2.847,-0.012 4.052,-0.457 4.178,-1.545 0.1,-0.862 0.355,-1.073 1.422,-1.176 1.19,-0.115 1.3,-0.242 1.3,-1.5 0,-1.305 0.072,-1.375 1.4,-1.375 1.289,0 1.4,-0.095 1.4,-1.2 0,-0.986 0.164,-1.2 0.92,-1.2 1.164,0 1.88,-0.706 1.88,-1.853 0,-0.678 0.266,-0.924 1.1,-1.02 0.899,-0.104 1.122,-0.349 1.219,-1.347 0.09,-0.913 0.401,-1.325 1.239,-1.642 1.123,-0.424 1.642,-1.683 1.642,-3.988 0,-0.749 0.214,-0.95 1.01,-0.95 1.217,0 1.79,-1.224 1.79,-3.826 0,-1.604 0.091,-1.774 0.957,-1.774 1.155,0 1.443,-0.646 1.443,-3.233 0,-1.824 0.072,-1.967 0.986,-1.967 1.869,0 1.814,2.655 1.814,-88.324 0,-92.653 0.064,-89.17 -1.662,-89.822 -0.926,-0.349 -1.138,-0.669 -1.138,-1.716 0,-1.834 -0.623,-3.228 -1.577,-3.531 -0.665,-0.211 -0.823,-0.596 -0.823,-2.008 0,-2.554 -0.578,-3.799 -1.765,-3.799 -0.818,0 -1.005,-0.219 -1.11,-1.3 -0.109,-1.139 -0.284,-1.315 -1.407,-1.424 -1.275,-0.123 -1.282,-0.135 -1.4,-2.6 -0.112,-2.342 -0.175,-2.483 -1.172,-2.598 -0.808,-0.094 -1.11,-0.4 -1.292,-1.309 -0.183,-0.914 -0.509,-1.24 -1.423,-1.423 -0.909,-0.182 -1.215,-0.484 -1.309,-1.292 -0.1,-0.861 -0.356,-1.077 -1.398,-1.178 -1.112,-0.107 -1.293,-0.288 -1.4,-1.4 -0.109,-1.116 -0.286,-1.292 -1.424,-1.401 -0.943,-0.091 -1.3,-0.325 -1.3,-0.851 0,-1.076 -0.781,-1.541 -3.11,-1.85 -1.97,-0.261 -2.09,-0.343 -2.09,-1.426 0,-1.145 -0.006,-1.148 -2.575,-1.148 h -2.574 l -0.126,-1.3 c -0.115,-1.193 -0.252,-1.31 -1.66,-1.426 -1.16,-0.096 -1.831,-0.463 -2.742,-1.5 -0.829,-0.945 -1.552,-1.374 -2.314,-1.374 -0.912,0 -1.152,-0.213 -1.349,-1.2 -0.234,-1.171 -0.297,-1.2 -2.605,-1.2 h -2.366 l -0.263,-1.4 -0.262,-1.4 h -2.557 -2.556 l -0.126,-1.3 C 329,65.4 329,65.4 326.5,65.281 c -2.475,-0.118 -2.5,-0.131 -2.5,-1.3 0,-1.079 -0.119,-1.181 -1.375,-1.181 -1.258,0 -1.385,-0.11 -1.5,-1.3 C 321,60.2 321,60.2 318.5,60.081 316.047,59.964 316,59.94 316,58.824 c 0,-1.345 -0.552,-1.624 -3.206,-1.624 -1.82,0 -1.949,-0.069 -2.067,-1.1 -0.11,-0.955 -0.325,-1.116 -1.627,-1.224 -1.137,-0.094 -1.5,-0.3 -1.5,-0.851 0,-1.054 -0.834,-1.59 -2.92,-1.876 -1.598,-0.219 -1.871,-0.397 -2.082,-1.36 C 302.327,49.555 301.53,49.214 298.9,49.205 297.279,49.2 297.2,49.144 297.2,48 v -1.2 h -2.575 -2.574 l -0.126,-1.3 c -0.109,-1.132 -0.287,-1.316 -1.379,-1.422 -1.017,-0.099 -1.298,-0.337 -1.482,-1.259 -0.211,-1.055 -0.399,-1.156 -2.623,-1.414 -2.212,-0.257 -2.404,-0.359 -2.518,-1.342 -0.117,-1.009 -0.249,-1.069 -2.623,-1.182 -2.133,-0.102 -2.5,-0.229 -2.5,-0.867 0,-1.496 -0.463,-2.014 -1.799,-2.014 -1.054,0 -1.362,-0.19 -1.555,-0.96 -0.26,-1.036 -1.955,-1.84 -3.879,-1.84 -0.918,0 -1.136,-0.194 -1.24,-1.1 -0.122,-1.053 -0.233,-1.105 -2.603,-1.218 -2.465,-0.118 -2.477,-0.125 -2.6,-1.4 C 265,28.204 264.992,28.2 262.5,28.081 260.047,27.964 260,27.94 260,26.824 c 0,-1.157 -0.585,-1.624 -2.033,-1.624 -0.472,0 -0.767,-0.277 -0.767,-0.72 0,-1.206 -0.861,-1.68 -3.055,-1.68 -2.07,0 -2.096,-0.015 -2.22,-1.3 -0.125,-1.3 -0.125,-1.3 -2.625,-1.419 -2.138,-0.102 -2.5,-0.228 -2.5,-0.872 0,-1.359 -1.109,-2.009 -3.429,-2.009 -2.146,0 -2.171,-0.014 -2.171,-1.2 0,-1.105 -0.111,-1.2 -1.4,-1.2 -1.277,0 -1.4,-0.101 -1.4,-1.157 0,-1.368 -0.541,-1.643 -3.233,-1.643 -1.9,0 -1.967,-0.039 -1.967,-1.15 0,-1.245 -0.946,-1.65 -3.85,-1.65 C 228.117,9.2 228,9.096 228,8 V 6.8 h -2.6 c -2.296,0 -2.6,-0.09 -2.6,-0.767 C 222.8,4.518 222.342,4 221.001,4 219.939,4 219.639,3.811 219.44,3.018 219.114,1.717 217.215,1.205 212.7,1.202 209.857,1.2 209.2,1.087 209.2,0.6 209.2,0.08 207.622,0 197.4,0 187.178,0 185.6,0.08 185.6,0.6 m -16,71.145 c 9.195,2.688 15.703,8.05 21.188,17.455 0.962,1.65 2.258,3.796 2.88,4.769 0.623,0.972 1.132,1.983 1.132,2.246 0,0.262 0.379,0.959 0.843,1.549 0.463,0.589 1.354,2.127 1.979,3.417 0.625,1.29 1.321,2.46 1.546,2.599 0.225,0.139 0.779,1.011 1.231,1.937 0.452,0.925 1.532,2.853 2.401,4.283 0.868,1.43 2.024,3.528 2.568,4.663 0.544,1.135 1.194,2.19 1.444,2.344 0.25,0.155 0.811,1.116 1.248,2.137 0.437,1.021 1.133,2.218 1.548,2.661 0.415,0.443 1.044,1.433 1.399,2.2 0.354,0.767 1.342,2.565 2.195,3.995 0.852,1.43 2.007,3.441 2.565,4.469 0.558,1.028 1.469,2.538 2.024,3.356 1.123,1.654 1.416,5.456 0.548,7.101 -2.217,4.202 -6.317,5.346 -11.739,3.274 -3.479,-1.329 -9.647,-3.293 -27.2,-8.662 -2.86,-0.874 -6.55,-2.04 -8.2,-2.59 -1.65,-0.551 -3.99,-1.27 -5.2,-1.6 -8.222,-2.238 -15.884,-5.12 -18.822,-7.081 -7.815,-5.215 -12.094,-10.849 -13.928,-18.338 -5.388,-22.001 15.101,-42.396 36.35,-36.184 M 20,110.2 c 0,0.33 -0.292,0.6 -0.649,0.6 -0.531,0 -0.559,-0.109 -0.151,-0.6 0.274,-0.33 0.566,-0.6 0.649,-0.6 0.083,0 0.151,0.27 0.151,0.6 m 149.4,42.794 c 6.23,1.202 17.707,5.929 20.8,8.567 0.44,0.376 1.591,1.213 2.558,1.861 0.967,0.648 2.389,1.602 3.159,2.121 1.492,1.005 11.206,10.691 12.883,12.846 1.622,2.085 2.463,3.288 5.068,7.254 1.357,2.066 2.846,4.24 3.308,4.83 0.463,0.591 1.108,1.831 1.434,2.756 0.327,0.926 0.97,2.291 1.429,3.034 5.745,9.296 8.98,30.828 6.662,44.342 -2.271,13.238 -11.251,26.565 -21.024,31.199 -1.168,0.553 -2.608,1.355 -3.2,1.78 -0.592,0.425 -2.427,1.046 -4.077,1.379 -1.65,0.333 -3.63,0.838 -4.4,1.121 -0.921,0.34 -3.542,0.516 -7.665,0.516 h -6.265 l -1.735,-1.216 c -1.561,-1.095 -1.747,-1.398 -1.854,-3.032 l -0.119,-1.816 2.519,-1.614 c 1.385,-0.888 2.969,-1.845 3.519,-2.127 4.082,-2.093 10.872,-10.169 12.206,-14.517 0.284,-0.923 0.904,-2.574 1.379,-3.669 2.021,-4.654 2.046,-22.191 0.04,-27.42 -0.462,-1.204 -1.112,-3.225 -1.444,-4.492 -2.605,-9.928 -12.79,-24.366 -21.582,-30.596 -3.643,-2.581 -6.552,-4.501 -6.821,-4.501 -0.132,0 -1.538,-0.624 -3.124,-1.387 -9.552,-4.594 -23.297,-4.887 -29.998,-0.639 -0.691,0.438 -2.098,1.25 -3.128,1.804 -1.029,0.554 -1.985,1.19 -2.123,1.414 -1.144,1.851 -5.247,-1.516 -4.853,-3.981 0.251,-1.573 2.58,-6.311 3.808,-7.747 0.346,-0.405 0.812,-1.167 1.035,-1.694 0.596,-1.41 6.358,-7.554 8.901,-9.492 8.781,-6.693 20.696,-9.201 32.704,-6.884 m 58.856,7.998 c 1.729,0.326 6.358,0.953 10.286,1.395 8.046,0.904 9.638,1.509 12.988,4.935 3.001,3.07 3.363,11.234 0.634,14.306 -0.306,0.345 -0.921,1.683 -1.364,2.973 -0.444,1.29 -1.142,2.912 -1.55,3.605 -0.409,0.692 -0.975,1.964 -1.257,2.827 -0.681,2.074 -2.667,5.971 -3.294,6.461 -2.973,2.324 -5.11,0.768 -6.886,-5.013 -1.246,-4.055 -6.42,-14.668 -8.425,-17.281 -0.759,-0.99 -1.686,-2.25 -2.058,-2.8 -0.767,-1.132 -2.515,-3.061 -4.423,-4.882 -2.682,-2.56 -1.654,-5.959 2.149,-7.101 0.031,-0.009 1.471,0.249 3.2,0.575 m -89.129,39.024 c 2.844,0.462 8.817,2.805 10.658,4.181 0.668,0.5 1.755,1.184 2.415,1.52 2.183,1.112 9.36,8.69 10.713,11.312 0.349,0.676 0.924,1.47 1.278,1.763 4.518,3.75 7.835,21.86 5.459,29.808 -0.762,2.549 -2.154,5.654 -3.082,6.873 -0.532,0.701 -0.968,1.415 -0.968,1.588 0,0.459 -4.103,4.539 -4.564,4.539 -0.216,0 -0.852,0.431 -1.414,0.958 -3.897,3.651 -18.058,3.827 -22.851,0.284 -0.585,-0.432 -1.738,-1.068 -2.563,-1.413 -0.825,-0.344 -2.115,-1.167 -2.868,-1.828 -0.752,-0.66 -1.506,-1.201 -1.676,-1.201 -1.568,0 -8.895,-9.255 -11.242,-14.2 -3.012,-6.347 -3.216,-6.851 -4.066,-10.052 -5.326,-20.055 6.985,-37.018 24.771,-34.132 m 122.688,13.757 c 1.26,0.825 4.847,6.345 7.297,11.227 0.331,0.66 0.999,1.74 1.485,2.4 0.486,0.66 1.275,2.01 1.754,3 0.478,0.99 1.575,2.97 2.436,4.4 0.861,1.43 2.125,3.59 2.808,4.8 0.684,1.21 1.862,3.19 2.618,4.4 0.757,1.21 1.84,3.142 2.407,4.292 0.567,1.151 1.21,2.203 1.427,2.337 0.218,0.135 0.839,1.173 1.381,2.308 0.543,1.135 1.79,3.413 2.771,5.063 1.593,2.676 2.464,4.178 4.407,7.6 6.13,10.797 5.527,24.745 -1.484,34.293 -1.525,2.077 -6.246,6.907 -6.751,6.907 -0.145,0 -0.774,0.405 -1.398,0.9 -1.271,1.008 -5.935,2.843 -9.573,3.766 -7.806,1.98 -21.097,-1.317 -25.675,-6.371 -0.446,-0.492 -1.152,-1.188 -1.568,-1.547 -7.027,-6.048 -10.924,-20.816 -8.009,-30.348 0.37,-1.21 0.957,-3.64 1.304,-5.4 0.347,-1.76 0.971,-4.55 1.387,-6.2 0.416,-1.65 1.127,-4.89 1.58,-7.2 0.453,-2.31 1.154,-5.46 1.558,-7 0.404,-1.54 1.395,-5.77 2.203,-9.4 0.807,-3.63 1.981,-8.85 2.608,-11.6 0.628,-2.75 1.264,-5.949 1.415,-7.108 0.751,-5.772 6.822,-8.657 11.612,-5.519 M 28,305.849 c 0,0.531 -0.109,0.559 -0.6,0.151 -0.33,-0.274 -0.6,-0.566 -0.6,-0.649 0,-0.083 0.27,-0.151 0.6,-0.151 0.33,0 0.6,0.292 0.6,0.649"
       id="path1" />
    <path
       inkscape:connector-curvature="0"
       fill-rule="evenodd"
       fill="#f4f4f4"
       stroke="none"
       d="m 159.489,73.674 c 2.012,0.224 4.187,0.222 5.6,-0.005 1.993,-0.321 1.541,-0.372 -3.289,-0.367 -5.532,0.005 -5.56,0.01 -2.311,0.372 M 149,75.982 l -1.2,0.288 1.071,0.301 c 1.224,0.344 2.854,-0.045 2.511,-0.6 -0.255,-0.412 -0.624,-0.41 -2.382,0.011 m 24.266,-0.031 c -0.4,0.253 -0.308,0.397 0.37,0.574 1.028,0.269 1.688,-0.002 1.347,-0.553 -0.285,-0.46 -1.01,-0.469 -1.717,-0.021 M 144.8,78.776 c 0,0.693 0.704,0.822 1.204,0.22 0.411,-0.496 0.351,-0.596 -0.355,-0.596 -0.467,0 -0.849,0.169 -0.849,0.376 m 33.6,-0.19 c 0,0.102 0.36,0.379 0.8,0.614 0.639,0.342 0.8,0.304 0.8,-0.186 0,-0.347 -0.347,-0.614 -0.8,-0.614 -0.44,0 -0.8,0.084 -0.8,0.186 M 139.8,84 c -0.326,0.528 0.152,1.277 0.628,0.983 0.485,-0.3 0.482,-1.383 -0.004,-1.383 -0.207,0 -0.488,0.18 -0.624,0.4 m 44.4,-0.091 c -0.44,0.097 -0.98,0.319 -1.2,0.492 -0.22,0.174 -1.75,0.521 -3.4,0.771 -11.943,1.813 -19.396,13.324 -16.781,25.919 0.849,4.088 5.112,9.334 10.004,12.309 1.785,1.086 4.88,3.058 6.032,3.845 0.52,0.354 3.015,1.915 5.545,3.468 2.53,1.553 5.211,3.333 5.957,3.956 0.747,0.622 1.917,1.319 2.6,1.55 0.874,0.294 1.474,0.911 2.023,2.078 0.677,1.44 0.994,1.695 2.4,1.928 1.844,0.305 2.872,0.763 4.02,1.792 0.44,0.394 1.856,0.99 3.147,1.324 1.291,0.334 2.731,0.955 3.2,1.38 1.694,1.535 6.806,1.488 7.299,-0.066 0.147,-0.464 0.807,-1.514 1.466,-2.334 1.365,-1.7 1.35,-3.737 -0.041,-5.278 -0.418,-0.464 -0.945,-1.397 -1.171,-2.074 -0.226,-0.677 -0.862,-1.718 -1.413,-2.313 -0.552,-0.595 -1.12,-1.708 -1.264,-2.472 -0.154,-0.822 -0.649,-1.645 -1.211,-2.013 -0.606,-0.397 -1.132,-1.328 -1.449,-2.563 -0.333,-1.303 -0.783,-2.071 -1.368,-2.337 -0.56,-0.256 -1.055,-1.057 -1.389,-2.251 -0.286,-1.02 -0.853,-2.088 -1.262,-2.374 -0.408,-0.286 -0.951,-1.133 -1.206,-1.883 -0.256,-0.75 -0.976,-1.954 -1.601,-2.677 -0.625,-0.723 -1.137,-1.768 -1.137,-2.322 0,-0.6 -0.471,-1.446 -1.162,-2.087 -0.64,-0.592 -1.388,-1.839 -1.662,-2.771 -0.275,-0.932 -0.906,-1.961 -1.403,-2.287 -0.497,-0.325 -1.021,-1.129 -1.165,-1.785 -0.145,-0.656 -0.79,-1.857 -1.435,-2.668 -0.645,-0.812 -1.173,-1.82 -1.173,-2.24 0,-0.42 -0.423,-1.161 -0.939,-1.645 -1.168,-1.096 -1.861,-2.378 -1.861,-3.445 0,-0.45 -0.437,-1.104 -0.972,-1.454 -0.534,-0.35 -1.247,-1.446 -1.584,-2.434 -0.337,-0.989 -1.114,-2.287 -1.728,-2.885 -0.614,-0.598 -1.296,-1.367 -1.516,-1.709 -0.225,-0.349 -0.751,-0.544 -1.2,-0.445 m -46.994,5.967 c 0.005,1.131 0.106,1.369 0.394,0.924 0.506,-0.782 0.506,-1.888 0,-2.2 -0.24,-0.148 -0.398,0.361 -0.394,1.276 m 0.022,21.824 c -0.015,1.045 0.152,1.9 0.372,1.9 0.48,0 0.48,-1.882 0,-3 -0.259,-0.602 -0.351,-0.33 -0.372,1.1 m 10.432,11.88 c 0.172,0.516 0.721,0.608 0.77,0.13 0.016,-0.159 -0.186,-0.362 -0.45,-0.45 -0.264,-0.088 -0.408,0.056 -0.32,0.32 m 4.94,2.82 c -0.151,0.244 0.423,0.389 1.476,0.372 1.33,-0.022 1.541,-0.107 0.924,-0.372 -1.107,-0.476 -2.106,-0.476 -2.4,0 m 8.2,2.8 c 0,0.22 0.675,0.397 1.5,0.394 1.116,-0.005 1.346,-0.106 0.9,-0.394 -0.788,-0.509 -2.4,-0.509 -2.4,0 m 8.9,2.676 c 0.385,0.1 1.015,0.1 1.4,0 0.385,-0.101 0.07,-0.183 -0.7,-0.183 -0.77,0 -1.085,0.082 -0.7,0.183 m 9.005,2.807 c 0.497,0.096 1.217,0.092 1.6,-0.008 0.382,-0.1 -0.025,-0.179 -0.905,-0.174 -0.88,0.004 -1.193,0.086 -0.695,0.182 m 76.195,79.729 c -0.495,0.199 -0.9,0.625 -0.9,0.946 0,0.321 -0.478,0.96 -1.063,1.42 -1.041,0.819 -1.078,1.007 -1.778,9.129 -0.393,4.561 -0.829,8.836 -0.968,9.499 -0.165,0.787 0.026,1.916 0.552,3.25 0.988,2.507 1.135,3.906 1.865,17.744 0.634,12.042 0.778,12.884 2.77,16.191 4.23,7.024 12.383,10.838 20.822,9.738 8.954,-1.166 19.29,-11.574 15.23,-15.336 -0.533,-0.494 -1.195,-1.685 -1.471,-2.646 -0.276,-0.961 -0.895,-2.107 -1.375,-2.547 -0.481,-0.44 -1.108,-1.43 -1.393,-2.2 -0.285,-0.77 -0.917,-1.85 -1.403,-2.4 -0.487,-0.55 -0.998,-1.481 -1.136,-2.069 -0.139,-0.588 -0.716,-1.621 -1.283,-2.294 -0.566,-0.674 -1.203,-1.85 -1.414,-2.615 -0.211,-0.764 -0.904,-1.909 -1.54,-2.545 -0.636,-0.636 -1.276,-1.797 -1.423,-2.58 -0.165,-0.88 -0.54,-1.495 -0.981,-1.61 -0.43,-0.113 -0.976,-0.977 -1.375,-2.179 -0.364,-1.096 -1.089,-2.394 -1.611,-2.884 -0.522,-0.491 -1.064,-1.507 -1.205,-2.258 -0.141,-0.751 -0.431,-1.366 -0.644,-1.366 -0.577,0 -1.973,-2.467 -1.975,-3.491 0,-0.502 -0.428,-1.17 -0.98,-1.532 -0.539,-0.353 -1.296,-1.482 -1.682,-2.509 -0.387,-1.028 -1.012,-2.094 -1.39,-2.369 -0.378,-0.276 -0.903,-1.176 -1.167,-2 -0.263,-0.825 -0.885,-1.949 -1.382,-2.499 -0.497,-0.55 -1.113,-1.656 -1.369,-2.458 -0.274,-0.86 -0.785,-1.541 -1.246,-1.662 -0.43,-0.112 -0.904,-0.536 -1.054,-0.942 -0.5,-1.354 -3.731,-1.85 -6.031,-0.926 M 246.509,248 c 0,0.99 0.078,1.395 0.173,0.9 0.096,-0.495 0.096,-1.305 0,-1.8 -0.095,-0.495 -0.173,-0.09 -0.173,0.9 m -2.408,11.8 c 0.004,0.88 0.086,1.193 0.182,0.695 0.096,-0.497 0.092,-1.217 -0.008,-1.6 -0.1,-0.382 -0.179,0.025 -0.174,0.905 M 241.32,272 c 0,1.21 0.075,1.705 0.167,1.1 0.091,-0.605 0.091,-1.595 0,-2.2 -0.092,-0.605 -0.167,-0.11 -0.167,1.1 m 0,18.4 c 0,1.21 0.075,1.705 0.167,1.1 0.091,-0.605 0.091,-1.595 0,-2.2 -0.092,-0.605 -0.167,-0.11 -0.167,1.1 m 50.381,3 c 0.004,0.88 0.086,1.193 0.182,0.695 0.096,-0.497 0.092,-1.217 -0.008,-1.6 -0.1,-0.382 -0.179,0.025 -0.174,0.905 m -47.901,3.4 c -0.16,0.258 -0.11,0.65 0.11,0.87 0.266,0.266 0.496,0.243 0.69,-0.07 0.16,-0.258 0.11,-0.65 -0.11,-0.87 -0.266,-0.266 -0.496,-0.243 -0.69,0.07 m 45.3,0.229 c -0.165,0.167 -0.3,0.76 -0.3,1.318 0,0.728 0.122,0.891 0.434,0.579 0.238,-0.238 0.373,-0.832 0.3,-1.318 -0.074,-0.486 -0.269,-0.747 -0.434,-0.579 M 285.8,302 c -0.703,0.776 -0.699,0.8 0.138,0.8 0.595,0 0.862,-0.247 0.862,-0.8 0,-0.44 -0.062,-0.8 -0.138,-0.8 -0.076,0 -0.464,0.36 -0.862,0.8 m -34.2,3.2 c 0,0.22 0.371,0.4 0.824,0.4 0.453,0 0.712,-0.18 0.576,-0.4 -0.136,-0.22 -0.507,-0.4 -0.824,-0.4 -0.317,0 -0.576,0.18 -0.576,0.4 m 29.2,0 c 0,0.22 0.36,0.4 0.8,0.4 0.44,0 0.8,-0.18 0.8,-0.4 0,-0.22 -0.36,-0.4 -0.8,-0.4 -0.44,0 -0.8,0.18 -0.8,0.4 m -23.3,2.682 c 0.495,0.096 1.305,0.096 1.8,0 0.495,-0.095 0.09,-0.173 -0.9,-0.173 -0.99,0 -1.395,0.078 -0.9,0.173 m 17.4,-0.006 c 0.385,0.1 1.015,0.1 1.4,0 0.385,-0.101 0.07,-0.183 -0.7,-0.183 -0.77,0 -1.085,0.082 -0.7,0.183"
       id="path2" />
    <path
       inkscape:connector-curvature="0"
       fill-rule="evenodd"
       fill="#b8c6e0"
       stroke="none"
       d="m 155.457,71.401 c -22.435,5.708 -30.8,33.225 -14.987,49.298 5.963,6.061 11.617,8.862 25.53,12.649 1.21,0.33 3.55,1.049 5.2,1.6 1.65,0.55 5.34,1.716 8.2,2.59 17.553,5.369 23.721,7.333 27.2,8.662 5.422,2.072 9.522,0.928 11.739,-3.274 0.868,-1.645 0.575,-5.447 -0.548,-7.101 -0.555,-0.818 -1.466,-2.328 -2.024,-3.356 -0.558,-1.028 -1.713,-3.039 -2.565,-4.469 -0.853,-1.43 -1.841,-3.228 -2.195,-3.995 -0.355,-0.767 -0.984,-1.757 -1.399,-2.2 -0.415,-0.443 -1.111,-1.64 -1.548,-2.661 -0.437,-1.021 -0.998,-1.982 -1.248,-2.137 -0.25,-0.154 -0.9,-1.209 -1.444,-2.344 -0.544,-1.135 -1.7,-3.233 -2.568,-4.663 -0.869,-1.43 -1.949,-3.358 -2.401,-4.283 -0.452,-0.926 -1.006,-1.798 -1.231,-1.937 -0.225,-0.139 -0.921,-1.309 -1.546,-2.599 -0.625,-1.29 -1.516,-2.828 -1.979,-3.417 -0.464,-0.59 -0.843,-1.287 -0.843,-1.549 0,-0.263 -0.509,-1.274 -1.132,-2.246 -0.622,-0.973 -1.918,-3.119 -2.88,-4.769 -8.304,-14.241 -22.066,-21.174 -35.331,-17.799 m 9.632,2.268 c -1.413,0.227 -3.588,0.229 -5.6,0.005 -3.249,-0.362 -3.221,-0.367 2.311,-0.372 4.83,-0.005 5.282,0.046 3.289,0.367 m -13.707,2.302 c 0.343,0.555 -1.287,0.944 -2.511,0.6 L 147.8,76.27 149,75.982 c 1.758,-0.421 2.127,-0.423 2.382,-0.011 m 23.601,10e-4 c 0.341,0.551 -0.319,0.822 -1.347,0.553 -0.678,-0.177 -0.77,-0.321 -0.37,-0.574 0.707,-0.448 1.432,-0.439 1.717,0.021 m -28.979,3.024 c -0.5,0.602 -1.204,0.473 -1.204,-0.22 0,-0.207 0.382,-0.376 0.849,-0.376 0.706,0 0.766,0.1 0.355,0.596 M 180,79.014 c 0,0.49 -0.161,0.528 -0.8,0.186 -0.44,-0.235 -0.8,-0.512 -0.8,-0.614 0,-0.102 0.36,-0.186 0.8,-0.186 0.453,0 0.8,0.267 0.8,0.614 m -39.2,5.162 c 0,0.317 -0.168,0.68 -0.372,0.807 -0.476,0.294 -0.954,-0.455 -0.628,-0.983 0.368,-0.595 1,-0.484 1,0.176 m 46.116,1.887 c 0.614,0.598 1.391,1.896 1.728,2.885 0.337,0.988 1.05,2.084 1.584,2.434 0.535,0.35 0.972,1.004 0.972,1.454 0,1.067 0.693,2.349 1.861,3.445 0.516,0.484 0.939,1.225 0.939,1.645 0,0.42 0.528,1.428 1.173,2.24 0.645,0.811 1.29,2.012 1.435,2.668 0.144,0.656 0.668,1.46 1.165,1.785 0.497,0.326 1.128,1.355 1.403,2.287 0.274,0.932 1.022,2.179 1.662,2.771 0.691,0.641 1.162,1.487 1.162,2.087 0,0.554 0.512,1.599 1.137,2.322 0.625,0.723 1.345,1.927 1.601,2.677 0.255,0.75 0.798,1.597 1.206,1.883 0.409,0.286 0.976,1.354 1.262,2.374 0.334,1.194 0.829,1.995 1.389,2.251 0.585,0.266 1.035,1.034 1.368,2.337 0.317,1.235 0.843,2.166 1.449,2.563 0.562,0.368 1.057,1.191 1.211,2.013 0.144,0.764 0.712,1.877 1.264,2.472 0.551,0.595 1.187,1.636 1.413,2.313 0.226,0.677 0.753,1.61 1.171,2.074 1.391,1.541 1.406,3.578 0.041,5.278 -0.659,0.82 -1.319,1.87 -1.466,2.334 -0.493,1.554 -5.605,1.601 -7.299,0.066 -0.469,-0.425 -1.909,-1.046 -3.2,-1.38 -1.291,-0.334 -2.707,-0.93 -3.147,-1.324 -1.148,-1.029 -2.176,-1.487 -4.02,-1.792 -1.406,-0.233 -1.723,-0.488 -2.4,-1.928 -0.549,-1.167 -1.149,-1.784 -2.023,-2.078 -0.683,-0.231 -1.853,-0.928 -2.6,-1.55 -0.746,-0.623 -3.427,-2.403 -5.957,-3.956 -2.53,-1.553 -5.025,-3.114 -5.545,-3.468 -1.152,-0.787 -4.247,-2.759 -6.032,-3.845 -4.892,-2.975 -9.155,-8.221 -10.004,-12.309 -2.615,-12.595 4.838,-24.106 16.781,-25.919 1.65,-0.25 3.18,-0.597 3.4,-0.771 0.804,-0.633 2.008,-0.657 2.4,-0.047 0.22,0.342 0.902,1.111 1.516,1.709 m -48.922,3.461 c -0.003,0.372 -0.181,0.946 -0.394,1.276 -0.288,0.445 -0.389,0.207 -0.394,-0.924 -0.004,-0.915 0.154,-1.424 0.394,-1.276 0.22,0.136 0.397,0.552 0.394,0.924 m -0.022,22.976 c 0.015,0.605 -0.152,1.1 -0.372,1.1 -0.22,0 -0.387,-0.855 -0.372,-1.9 0.031,-2.059 0.689,-1.351 0.744,0.8 m 10.458,11.21 c -0.049,0.478 -0.598,0.386 -0.77,-0.13 -0.088,-0.264 0.056,-0.408 0.32,-0.32 0.264,0.088 0.466,0.291 0.45,0.45 m 6.57,2.69 c 0.617,0.265 0.406,0.35 -0.924,0.372 -1.053,0.017 -1.627,-0.128 -1.476,-0.372 0.294,-0.476 1.293,-0.476 2.4,0 m 8.2,2.8 c 0.446,0.288 0.216,0.389 -0.9,0.394 -0.825,0.003 -1.5,-0.174 -1.5,-0.394 0,-0.509 1.612,-0.509 2.4,0 m 7.9,2.676 c -0.385,0.1 -1.015,0.1 -1.4,0 -0.385,-0.101 -0.07,-0.183 0.7,-0.183 0.77,0 1.085,0.082 0.7,0.183 m 9.205,2.799 c -0.383,0.1 -1.103,0.104 -1.6,0.008 -0.498,-0.096 -0.185,-0.178 0.695,-0.182 0.88,-0.005 1.287,0.074 0.905,0.174 M 256,212.568 c -3.105,0.958 -5.392,3.61 -5.797,6.724 -0.151,1.159 -0.787,4.358 -1.415,7.108 -0.627,2.75 -1.801,7.97 -2.608,11.6 -0.808,3.63 -1.799,7.86 -2.203,9.4 -0.404,1.54 -1.105,4.69 -1.558,7 -0.453,2.31 -1.164,5.55 -1.58,7.2 -0.416,1.65 -1.04,4.44 -1.387,6.2 -0.347,1.76 -0.934,4.19 -1.304,5.4 -2.915,9.532 0.982,24.3 8.009,30.348 0.416,0.359 1.122,1.055 1.568,1.547 4.578,5.054 17.869,8.351 25.675,6.371 3.638,-0.923 8.302,-2.758 9.573,-3.766 0.624,-0.495 1.253,-0.9 1.398,-0.9 0.505,0 5.226,-4.83 6.751,-6.907 7.011,-9.548 7.614,-23.496 1.484,-34.293 -1.943,-3.422 -2.814,-4.924 -4.407,-7.6 -0.981,-1.65 -2.228,-3.928 -2.771,-5.063 -0.542,-1.135 -1.163,-2.173 -1.381,-2.308 -0.217,-0.134 -0.86,-1.186 -1.427,-2.337 -0.567,-1.15 -1.65,-3.082 -2.407,-4.292 -0.756,-1.21 -1.934,-3.19 -2.618,-4.4 -0.683,-1.21 -1.947,-3.37 -2.808,-4.8 -0.861,-1.43 -1.958,-3.41 -2.436,-4.4 -0.479,-0.99 -1.268,-2.34 -1.754,-3 -0.486,-0.66 -1.154,-1.74 -1.485,-2.4 C 263.93,214.673 260.309,211.24 256,212.568 m 4.229,1.738 c 0.236,0.162 0.552,0.626 0.702,1.032 0.15,0.406 0.624,0.83 1.054,0.942 0.461,0.121 0.972,0.802 1.246,1.662 0.256,0.802 0.872,1.908 1.369,2.458 0.497,0.55 1.119,1.674 1.382,2.499 0.264,0.824 0.789,1.724 1.167,2 0.378,0.275 1.003,1.341 1.39,2.369 0.386,1.027 1.143,2.156 1.682,2.509 0.552,0.362 0.98,1.03 0.98,1.532 0.002,1.024 1.398,3.491 1.975,3.491 0.213,0 0.503,0.615 0.644,1.366 0.141,0.751 0.683,1.767 1.205,2.258 0.522,0.49 1.247,1.788 1.611,2.884 0.399,1.202 0.945,2.066 1.375,2.179 0.441,0.115 0.816,0.73 0.981,1.61 0.147,0.783 0.787,1.944 1.423,2.58 0.636,0.636 1.329,1.781 1.54,2.545 0.211,0.765 0.848,1.941 1.414,2.615 0.567,0.673 1.144,1.706 1.283,2.294 0.138,0.588 0.649,1.519 1.136,2.069 0.486,0.55 1.118,1.63 1.403,2.4 0.285,0.77 0.912,1.76 1.393,2.2 0.48,0.44 1.099,1.586 1.375,2.547 0.276,0.961 0.938,2.152 1.471,2.646 4.06,3.762 -6.276,14.17 -15.23,15.336 -8.439,1.1 -16.592,-2.714 -20.822,-9.738 -1.992,-3.307 -2.136,-4.149 -2.77,-16.191 -0.73,-13.838 -0.877,-15.237 -1.865,-17.744 -0.526,-1.334 -0.717,-2.463 -0.552,-3.25 0.139,-0.663 0.575,-4.938 0.968,-9.499 0.7,-8.122 0.737,-8.31 1.778,-9.129 0.585,-0.46 1.063,-1.099 1.063,-1.42 0,-1.086 4.956,-1.923 6.229,-1.052 M 246.682,248.9 c -0.095,0.495 -0.173,0.09 -0.173,-0.9 0,-0.99 0.078,-1.395 0.173,-0.9 0.096,0.495 0.096,1.305 0,1.8 m -2.399,11.595 c -0.096,0.498 -0.178,0.185 -0.182,-0.695 -0.005,-0.88 0.074,-1.287 0.174,-0.905 0.1,0.383 0.104,1.103 0.008,1.6 m -2.796,12.605 c -0.092,0.605 -0.167,0.11 -0.167,-1.1 0,-1.21 0.075,-1.705 0.167,-1.1 0.091,0.605 0.091,1.595 0,2.2 m 0,18.4 c -0.092,0.605 -0.167,0.11 -0.167,-1.1 0,-1.21 0.075,-1.705 0.167,-1.1 0.091,0.605 0.091,1.595 0,2.2 m 50.396,2.595 c -0.096,0.498 -0.178,0.185 -0.182,-0.695 -0.005,-0.88 0.074,-1.287 0.174,-0.905 0.1,0.383 0.104,1.103 0.008,1.6 M 244.6,297.6 c -0.194,0.313 -0.424,0.336 -0.69,0.07 -0.22,-0.22 -0.27,-0.612 -0.11,-0.87 0.194,-0.313 0.424,-0.336 0.69,-0.07 0.22,0.22 0.27,0.612 0.11,0.87 m 44.634,1.326 c -0.312,0.312 -0.434,0.149 -0.434,-0.579 0,-1.319 0.561,-1.883 0.734,-0.739 0.073,0.486 -0.062,1.08 -0.3,1.318 M 286.8,302 c 0,0.553 -0.267,0.8 -0.862,0.8 -0.837,0 -0.841,-0.024 -0.138,-0.8 0.398,-0.44 0.786,-0.8 0.862,-0.8 0.076,0 0.138,0.36 0.138,0.8 m -33.8,3.2 c 0.136,0.22 -0.123,0.4 -0.576,0.4 -0.453,0 -0.824,-0.18 -0.824,-0.4 0,-0.22 0.259,-0.4 0.576,-0.4 0.317,0 0.688,0.18 0.824,0.4 m 29.4,0 c 0,0.22 -0.36,0.4 -0.8,0.4 -0.44,0 -0.8,-0.18 -0.8,-0.4 0,-0.22 0.36,-0.4 0.8,-0.4 0.44,0 0.8,0.18 0.8,0.4 m -23.1,2.682 c -0.495,0.096 -1.305,0.096 -1.8,0 -0.495,-0.095 -0.09,-0.173 0.9,-0.173 0.99,0 1.395,0.078 0.9,0.173 m 17,-0.006 c -0.385,0.1 -1.015,0.1 -1.4,0 -0.385,-0.101 -0.07,-0.183 0.7,-0.183 0.77,0 1.085,0.082 0.7,0.183"
       id="path3" />
    <path
       inkscape:connector-curvature="0"
       fill-rule="evenodd"
       fill="#ffa348"
       stroke="none"
       d="m 247.572,171.223 c -1.194,0.893 -2.892,1.976 -3.772,2.406 -0.88,0.431 -2.59,1.405 -3.8,2.166 -1.21,0.761 -2.939,1.731 -3.842,2.155 -2.49,1.17 -2.338,3.792 0.457,7.91 0.504,0.743 1.042,2.113 1.195,3.045 0.154,0.932 0.709,2.612 1.235,3.734 0.525,1.121 0.955,2.398 0.955,2.838 0,2.187 4.157,2.537 4.717,0.396 0.125,-0.475 0.716,-1.796 1.315,-2.935 0.599,-1.138 1.21,-2.619 1.358,-3.291 0.147,-0.671 0.665,-1.811 1.151,-2.534 0.486,-0.722 1.122,-2.117 1.413,-3.099 0.291,-0.982 1.051,-2.762 1.688,-3.956 1.014,-1.901 1.158,-2.59 1.158,-5.541 0,-5.464 -1.26,-6.259 -5.228,-3.294 m -33.779,19.189 c -0.296,0.478 -4.687,3.36 -7.593,4.982 -1.1,0.615 -3.89,2.203 -6.2,3.53 -2.31,1.327 -5.28,2.97 -6.6,3.65 -2.207,1.137 -2.389,1.333 -2.269,2.432 0.144,1.315 1.852,5.239 2.703,6.211 0.297,0.34 0.825,1.78 1.172,3.2 0.348,1.421 0.965,3.213 1.372,3.983 2.831,5.357 2.968,29.721 0.18,32.035 -0.312,0.258 -0.848,1.438 -1.192,2.622 -0.344,1.184 -1.031,2.645 -1.528,3.248 -0.496,0.602 -1.017,1.41 -1.158,1.796 -0.774,2.121 -7.384,8.626 -9.634,9.482 -0.533,0.202 -1.077,0.543 -1.209,0.758 -0.133,0.214 -1.033,0.773 -2,1.241 -1.128,0.546 -1.844,1.191 -1.996,1.798 -0.131,0.52 -0.334,1.196 -0.451,1.502 -1.148,2.992 19.485,2.962 23.759,-0.034 0.578,-0.405 1.702,-0.948 2.498,-1.206 0.796,-0.258 2.146,-0.998 3,-1.644 0.854,-0.647 1.758,-1.181 2.008,-1.187 0.251,-0.006 2.028,-1.586 3.95,-3.511 4.859,-4.868 5.395,-5.454 5.396,-5.904 0,-0.218 0.72,-1.455 1.6,-2.75 0.879,-1.295 1.599,-2.623 1.599,-2.953 0,-0.329 0.394,-1.236 0.875,-2.015 0.84,-1.358 2.772,-7.503 3.546,-11.278 1.827,-8.905 -0.255,-30.792 -3.4,-35.737 -0.301,-0.475 -0.841,-2.028 -1.2,-3.453 -0.358,-1.424 -0.98,-2.954 -1.382,-3.4 -0.402,-0.445 -1.014,-1.663 -1.36,-2.707 -1.025,-3.094 -3.727,-5.92 -4.486,-4.691 m -54.273,31.67 c -2.807,1.817 -3.975,2.522 -7.52,4.536 -1.21,0.687 -3.28,1.88 -4.6,2.652 -1.32,0.771 -4.2,2.427 -6.4,3.68 -2.2,1.252 -4.27,2.444 -4.6,2.649 -0.975,0.605 -4.627,2.705 -7.1,4.083 -1.265,0.705 -2.911,1.696 -3.658,2.201 -0.746,0.506 -2.046,1.126 -2.888,1.378 -1.604,0.481 -2.78,2.506 -2.107,3.631 2.513,4.206 10.044,11.54 13.904,13.541 0.247,0.127 1.079,0.56 1.849,0.96 0.77,0.4 1.85,0.959 2.4,1.242 3.488,1.794 14.582,1.869 18.2,0.124 11.761,-5.674 16.113,-23.67 9.186,-37.986 -0.578,-1.195 -1.267,-2.623 -1.531,-3.173 -0.762,-1.587 -2.139,-1.458 -5.135,0.482"
       id="path4" />
  </g>
</svg>
