<?xml version="1.0" encoding="UTF-8" standalone="no"?>
<svg
   xmlns:dc="http://purl.org/dc/elements/1.1/"
   xmlns:cc="http://creativecommons.org/ns#"
   xmlns:rdf="http://www.w3.org/1999/02/22-rdf-syntax-ns#"
   xmlns:svg="http://www.w3.org/2000/svg"
   xmlns="http://www.w3.org/2000/svg"
   xmlns:sodipodi="http://sodipodi.sourceforge.net/DTD/sodipodi-0.dtd"
   xmlns:inkscape="http://www.inkscape.org/namespaces/inkscape"
   inkscape:version="1.0beta2 (d1f66e3, 2020-01-24)"
   sodipodi:docname="github.svg"
   id="svg4"
   version="1.1"
   viewBox="0 0 57.6 56.176309"
   height="23.406796"
   width="24"
   fill="#24292e">
  <metadata
     id="metadata10">
    <rdf:RDF>
      <cc:Work
         rdf:about="">
        <dc:format>image/svg+xml</dc:format>
        <dc:type
           rdf:resource="http://purl.org/dc/dcmitype/StillImage" />
      </cc:Work>
    </rdf:RDF>
  </metadata>
  <defs
     id="defs8" />
  <sodipodi:namedview
     inkscape:current-layer="svg4"
     inkscape:window-maximized="0"
     inkscape:window-y="0"
     inkscape:window-x="0"
     inkscape:cy="36.948651"
     inkscape:cx="-7.7503914"
     inkscape:zoom="5.9"
     showgrid="false"
     id="namedview6"
     inkscape:window-height="1100"
     inkscape:window-width="1611"
     inkscape:pageshadow="2"
     inkscape:pageopacity="0"
     guidetolerance="10"
     gridtolerance="10"
     objecttolerance="10"
     borderopacity="1"
     bordercolor="#666666"
     pagecolor="#ffffff" />
  <path
     style="stroke-width:2.4"
     inkscape:connector-curvature="0"
     id="path2"
     d="M 28.8,0 C 12.8976,0 0,12.8952 0,28.8 0,41.5248 8.2512,52.32 19.6968,56.1288 21.1368,56.3928 21.6,55.5048 21.6,54.744 V 49.3824 C 13.5888,51.1248 11.9208,45.984 11.9208,45.984 10.6104,42.6552 8.7216,41.7696 8.7216,41.7696 c -2.616,-1.788 0.1992,-1.752 0.1992,-1.752 2.892,0.2016 4.416,2.9688 4.416,2.9688 2.568,4.4016 6.7368,3.1296 8.3808,2.3928 0.2568,-1.86 1.0032,-3.132 1.8288,-3.8496 -6.396,-0.732 -13.1208,-3.2016 -13.1208,-14.232 0,-3.144 1.128,-5.712 2.9664,-7.728 -0.2976,-0.7272 -1.284,-3.6576 0.2808,-7.6224 0,0 2.4192,-0.7728 7.92,2.952 A 27.624,27.624 0 0 1 28.8,13.9272 c 2.448,0.012 4.9128,0.3312 7.2144,0.9696 5.496,-3.7248 7.9128,-2.952 7.9128,-2.952 1.5672,3.9672 0.5808,6.8976 0.2832,7.6224 a 11.112,11.112 0 0 1 2.964,7.7304 c 0,11.064 -6.7368,13.4976 -13.152,14.208 1.032,0.8928 1.9752,2.6448 1.9752,5.3328 V 54.72 c 0,0.768 0.4608,1.6656 1.92,1.3824 C 49.3584,52.3128 57.6,41.52 57.6,28.8 57.6,12.8952 44.7048,0 28.8,0 Z" />
</svg>
