<?xml version="1.0" encoding="UTF-8" standalone="no"?>
<svg
   xmlns:dc="http://purl.org/dc/elements/1.1/"
   xmlns:cc="http://creativecommons.org/ns#"
   xmlns:rdf="http://www.w3.org/1999/02/22-rdf-syntax-ns#"
   xmlns:svg="http://www.w3.org/2000/svg"
   xmlns="http://www.w3.org/2000/svg"
   xmlns:xlink="http://www.w3.org/1999/xlink"
   xmlns:sodipodi="http://sodipodi.sourceforge.net/DTD/sodipodi-0.dtd"
   xmlns:inkscape="http://www.inkscape.org/namespaces/inkscape"
   inkscape:version="1.0beta2 (d1f66e3, 2020-01-24)"
   height="25.147409"
   width="24"
   sodipodi:docname="gumroad.svg"
   xml:space="preserve"
   viewBox="0 0 24 25.147409"
   version="1.1"
   enable-background="new 0 0 180 190.5"
   y="0"
   x="0"
   id="Layer_1"><metadata
     id="metadata76"><rdf:RDF><cc:Work
         rdf:about=""><dc:format>image/svg+xml</dc:format><dc:type
           rdf:resource="http://purl.org/dc/dcmitype/StillImage" /></cc:Work></rdf:RDF></metadata><defs
     id="defs74" /><sodipodi:namedview
     inkscape:current-layer="Layer_1"
     inkscape:window-maximized="0"
     inkscape:window-y="0"
     inkscape:window-x="0"
     inkscape:cy="91.65"
     inkscape:cx="86.3"
     inkscape:zoom="1.3111111"
     showgrid="false"
     id="namedview72"
     inkscape:window-height="1178"
     inkscape:window-width="1820"
     inkscape:pageshadow="2"
     inkscape:pageopacity="0"
     guidetolerance="10"
     gridtolerance="10"
     objecttolerance="10"
     borderopacity="1"
     bordercolor="#666666"
     pagecolor="#ffffff" /><g
     transform="matrix(0.13659647,0,0,0.13659647,-0.50540694,-0.49174729)"
     id="g69"><defs
       id="defs3"><path
         inkscape:connector-curvature="0"
         d="m 25,27.4 h 123.6 c 2.7,5.2 8.2,8.8 14.5,8.8 9,0 16.3,-7.3 16.3,-16.3 0,-9 -7.3,-16.3 -16.4,-16.3 -6.8,0 -12.7,4.2 -15.1,10.2 H 25 C 13.1,13.8 3.7,22.9 3.7,34.4 V 166 c 0,11.7 9.8,21.7 21.3,21.7 h 131.5 c 11.6,0 21,-9.7 21,-21.7 V 88 c 0,-11.7 -9.4,-21.3 -21,-21.3 h -78 c -11.9,0 -22,9.8 -22,21.3 v 24.5 c 0,11.4 9.9,20.6 22,20.6 h 27.2 c 2.4,6 8.3,10.2 15.1,10.2 9,0 16.3,-7.3 16.3,-16.3 0,-9 -7.3,-16.3 -16.3,-16.3 -6.3,0 -11.8,3.6 -14.5,8.8 H 78.5 c -4,0 -8.3,-2.7 -8.3,-7 V 87.9 c 0,-4 4,-7.7 8.3,-7.7 h 78 c 4.1,0 7.4,3.4 7.4,7.7 v 78 c 0,4.3 -3.4,8 -7.4,8 H 25 c -4.1,0 -7.7,-3.8 -7.7,-8 V 34.4 c 0,-3.9 3.3,-7 7.7,-7 z M 163,12.1 c 4.3,0 7.8,3.5 7.8,7.8 0,4.3 -3.5,7.8 -7.8,7.8 -4.3,0 -7.8,-3.5 -7.8,-7.8 0,-4.3 3.5,-7.8 7.8,-7.8 z m -42.1,107.1 c 4.3,0 7.8,3.5 7.8,7.8 0,4.3 -3.5,7.8 -7.8,7.8 -4.3,0 -7.8,-3.5 -7.8,-7.8 0,-4.4 3.5,-7.8 7.8,-7.8 z"
         id="SVGID_1_" /></defs><clipPath
       id="SVGID_2_"><use
         height="100%"
         width="100%"
         y="0"
         x="0"
         id="use5"
         xlink:href="#SVGID_1_"
         overflow="visible" /></clipPath><rect
       id="rect8"
       clip-path="url(#SVGID_2_)"
       fill="#3eb8bc"
       y="7.4000001"
       x="-1.6"
       height="27.799999"
       width="26.1" /><rect
       id="rect10"
       clip-path="url(#SVGID_2_)"
       fill="#0a968e"
       y="165.39999"
       x="-1.6"
       height="27.799999"
       width="26.1" /><rect
       id="rect12"
       clip-path="url(#SVGID_2_)"
       fill="#eb5b28"
       y="165.39999"
       x="156"
       height="27.799999"
       width="26.1" /><rect
       id="rect14"
       clip-path="url(#SVGID_2_)"
       fill="#c22c2e"
       y="60.700001"
       x="156"
       height="27.799999"
       width="26.1" /><rect
       id="rect16"
       clip-path="url(#SVGID_2_)"
       fill="#ca4c30"
       y="60.700001"
       x="52.900002"
       height="27.799999"
       width="26.1" /><rect
       id="rect18"
       clip-path="url(#SVGID_2_)"
       fill="#e94e1b"
       y="111.9"
       x="52.900002"
       height="27.799999"
       width="26.1" /><linearGradient
       gradientUnits="userSpaceOnUse"
       y2="38.450001"
       y1="164.158"
       x2="11.164"
       x1="11.164"
       id="SVGID_3_"><stop
         id="stop20"
         stop-color="#0A968E"
         offset="0" /><stop
         id="stop22"
         stop-color="#3EB8BC"
         offset="1" /></linearGradient><rect
       style="fill:url(#SVGID_3_)"
       id="rect25"
       clip-path="url(#SVGID_2_)"
       fill="url(#SVGID_3_)"
       y="34.700001"
       x="-1.6"
       height="131.3"
       width="25.6" /><linearGradient
       gradientUnits="userSpaceOnUse"
       y2="179.59801"
       y1="179.59801"
       x2="156.533"
       x1="23.944"
       id="SVGID_4_"><stop
         id="stop27"
         stop-color="#0A968E"
         offset="0" /><stop
         id="stop29"
         stop-color="#EB5B28"
         offset="1" /></linearGradient><rect
       style="fill:url(#SVGID_4_)"
       id="rect32"
       clip-path="url(#SVGID_2_)"
       fill="url(#SVGID_4_)"
       y="166"
       x="23.9"
       height="27.299999"
       width="132.60001" /><linearGradient
       gradientUnits="userSpaceOnUse"
       y2="165.19501"
       y1="88.252998"
       x2="169.313"
       x1="169.313"
       id="SVGID_5_"><stop
         id="stop34"
         stop-color="#C22C2E"
         offset="0" /><stop
         id="stop36"
         stop-color="#EB5B28"
         offset="1" /></linearGradient><rect
       style="fill:url(#SVGID_5_)"
       id="rect39"
       clip-path="url(#SVGID_2_)"
       fill="url(#SVGID_5_)"
       y="87.900002"
       x="156.5"
       height="78"
       width="25.6" /><linearGradient
       gradientUnits="userSpaceOnUse"
       y2="74.309998"
       y1="74.309998"
       x2="79.945"
       x1="155.382"
       id="SVGID_6_"><stop
         id="stop41"
         stop-color="#C22C2E"
         offset="0" /><stop
         id="stop43"
         stop-color="#CA4C30"
         offset="1" /></linearGradient><rect
       style="fill:url(#SVGID_6_)"
       id="rect46"
       clip-path="url(#SVGID_2_)"
       fill="url(#SVGID_6_)"
       y="60.700001"
       x="78.5"
       height="27.299999"
       width="78" /><linearGradient
       gradientUnits="userSpaceOnUse"
       y2="111.635"
       y1="88.500999"
       x2="65.727997"
       x1="65.727997"
       id="SVGID_7_"><stop
         id="stop48"
         stop-color="#CA4C30"
         offset="0" /><stop
         id="stop50"
         stop-color="#E94E1B"
         offset="1" /></linearGradient><rect
       style="fill:url(#SVGID_7_)"
       id="rect53"
       clip-path="url(#SVGID_2_)"
       fill="url(#SVGID_7_)"
       y="87.900002"
       x="52.900002"
       height="24.5"
       width="25.6" /><linearGradient
       gradientUnits="userSpaceOnUse"
       y2="21.018"
       y1="21.018"
       x2="26.598"
       x1="182.09399"
       id="SVGID_8_"><stop
         id="stop55"
         stop-color="#0D77BA"
         offset="0" /><stop
         id="stop57"
         stop-color="#3EB8BC"
         offset="1" /></linearGradient><polygon
       style="fill:url(#SVGID_8_)"
       id="polygon60"
       clip-path="url(#SVGID_2_)"
       points="23.9,34.7 143.6,34.7 143.6,40.3 182.1,40.3 182.1,1.7 143.6,1.7 143.6,7.4 23.9,7.4 "
       fill="url(#SVGID_8_)" /><linearGradient
       gradientUnits="userSpaceOnUse"
       y2="126.954"
       y1="126.954"
       x2="140.246"
       x1="78.509003"
       id="SVGID_9_"><stop
         id="stop62"
         stop-color="#E94E1B"
         offset="0" /><stop
         id="stop64"
         stop-color="#F8AE3B"
         offset="1" /></linearGradient><polygon
       style="fill:url(#SVGID_9_)"
       id="polygon67"
       clip-path="url(#SVGID_2_)"
       points="78.5,139.7 101.9,139.7 101.9,146.1 140.2,146.1 140.2,107.8 101.9,107.8 101.9,112.5 78.5,112.5 "
       fill="url(#SVGID_9_)" /></g></svg>
